<?xml version="1.0" encoding="UTF-8"?>
<!DOCTYPE svg PUBLIC "-//W3C//DTD SVG 1.1//EN" "http://www.w3.org/Graphics/SVG/1.1/DTD/svg11.dtd">
<!-- Creator: CorelDRAW SE -->
<svg xmlns="http://www.w3.org/2000/svg" xml:space="preserve" width="52.5096mm" height="21.6062mm" version="1.1" style="shape-rendering:geometricPrecision; text-rendering:geometricPrecision; image-rendering:optimizeQuality; fill-rule:evenodd; clip-rule:evenodd"
viewBox="0 0 1462 602"
 xmlns:xlink="http://www.w3.org/1999/xlink">
 <defs>
  <style type="text/css">
   <![CDATA[
    .str0 {stroke:#2B2A29;stroke-width:20.8827}
    .fil1 {fill:none;fill-rule:nonzero}
    .fil0 {fill:#2B2A29;fill-rule:nonzero}
   ]]>
  </style>
 </defs>
 <g id="Layer_x0020_1">
  <metadata id="CorelCorpID_0Corel-Layer"/>
  <path class="fil0" d="M304 507c24,0 45,-2 63,-6 17,-5 34,-11 50,-18l0 -104 -71 0c-7,0 -12,-2 -16,-6 -4,-4 -6,-8 -6,-14l0 -59 189 0 0 230c-14,10 -29,19 -45,27 -16,8 -32,14 -50,19 -18,5 -37,9 -57,11 -20,3 -42,4 -65,4 -41,0 -79,-7 -114,-21 -35,-15 -65,-35 -91,-61 -25,-25 -45,-56 -59,-92 -14,-35 -22,-74 -22,-116 0,-43 7,-82 21,-118 14,-35 34,-66 59,-92 26,-25 57,-45 93,-59 37,-14 78,-22 123,-22 46,0 86,7 120,21 34,14 63,32 87,54l-31 48c-6,10 -14,14 -24,14 -6,0 -13,-2 -19,-6 -9,-5 -17,-10 -26,-15 -9,-5 -18,-9 -29,-13 -11,-3 -23,-6 -36,-9 -13,-2 -28,-3 -46,-3 -28,0 -53,5 -76,14 -22,9 -42,23 -58,40 -16,18 -28,39 -37,64 -8,24 -13,52 -13,82 0,33 5,62 14,87 9,26 22,47 39,65 16,17 36,31 59,40 22,9 47,14 74,14z"/>
  <path id="1" class="fil0" d="M791 10c26,0 50,4 72,12 21,8 40,19 55,33 16,14 28,31 37,51 8,20 13,42 13,66 0,21 -3,41 -10,58 -6,18 -14,35 -24,52 -11,16 -23,31 -37,47 -14,15 -28,30 -43,46l-128 131c12,-4 24,-7 36,-9 13,-2 24,-3 35,-3l146 0c10,0 19,3 25,9 6,6 9,14 9,24l0 58 -390 0 0 -32c0,-7 2,-14 4,-21 3,-7 7,-13 14,-19l172 -173c14,-15 27,-29 39,-42 11,-14 21,-27 28,-40 8,-13 14,-26 18,-40 4,-13 6,-28 6,-43 0,-13 -2,-25 -6,-36 -4,-10 -9,-19 -17,-26 -7,-7 -16,-12 -26,-16 -10,-3 -21,-5 -34,-5 -23,0 -42,6 -57,18 -15,12 -26,27 -32,47 -3,10 -7,17 -13,22 -6,4 -13,6 -22,6 -4,0 -8,0 -13,-1l-51 -9c4,-27 12,-51 23,-72 11,-20 25,-37 42,-51 17,-14 36,-24 58,-31 22,-7 46,-11 71,-11z"/>
  <path id="2" class="fil0" d="M1380 370l72 0 0 57c0,5 -2,9 -5,13 -4,4 -9,6 -15,6l-52 0 0 138 -85 0 0 -138 -239 0c-7,0 -13,-2 -18,-6 -5,-4 -8,-9 -9,-15l-10 -50 269 -359 92 0 0 354zm-85 -186c0,-8 0,-17 1,-27 1,-9 1,-19 3,-30l-177 243 173 0 0 -186z"/>
  <path id="3" class="fil1 str0" d="M304 507c24,0 45,-2 63,-6 17,-5 34,-11 50,-18l0 -104 -71 0c-7,0 -12,-2 -16,-6 -4,-4 -6,-8 -6,-14l0 -59 189 0 0 230c-14,10 -29,19 -45,27 -16,8 -32,14 -50,19 -18,5 -37,9 -57,11 -20,3 -42,4 -65,4 -41,0 -79,-7 -114,-21 -35,-15 -65,-35 -91,-61 -25,-25 -45,-56 -59,-92 -14,-35 -22,-74 -22,-116 0,-43 7,-82 21,-118 14,-35 34,-66 59,-92 26,-25 57,-45 93,-59 37,-14 78,-22 123,-22 46,0 86,7 120,21 34,14 63,32 87,54l-31 48c-6,10 -14,14 -24,14 -6,0 -13,-2 -19,-6 -9,-5 -17,-10 -26,-15 -9,-5 -18,-9 -29,-13 -11,-3 -23,-6 -36,-9 -13,-2 -28,-3 -46,-3 -28,0 -53,5 -76,14 -22,9 -42,23 -58,40 -16,18 -28,39 -37,64 -8,24 -13,52 -13,82 0,33 5,62 14,87 9,26 22,47 39,65 16,17 36,31 59,40 22,9 47,14 74,14z"/>
  <path id="4" class="fil1 str0" d="M791 10c26,0 50,4 72,12 21,8 40,19 55,33 16,14 28,31 37,51 8,20 13,42 13,66 0,21 -3,41 -10,58 -6,18 -14,35 -24,52 -11,16 -23,31 -37,47 -14,15 -28,30 -43,46l-128 131c12,-4 24,-7 36,-9 13,-2 24,-3 35,-3l146 0c10,0 19,3 25,9 6,6 9,14 9,24l0 58 -390 0 0 -32c0,-7 2,-14 4,-21 3,-7 7,-13 14,-19l172 -173c14,-15 27,-29 39,-42 11,-14 21,-27 28,-40 8,-13 14,-26 18,-40 4,-13 6,-28 6,-43 0,-13 -2,-25 -6,-36 -4,-10 -9,-19 -17,-26 -7,-7 -16,-12 -26,-16 -10,-3 -21,-5 -34,-5 -23,0 -42,6 -57,18 -15,12 -26,27 -32,47 -3,10 -7,17 -13,22 -6,4 -13,6 -22,6 -4,0 -8,0 -13,-1l-51 -9c4,-27 12,-51 23,-72 11,-20 25,-37 42,-51 17,-14 36,-24 58,-31 22,-7 46,-11 71,-11z"/>
  <path id="5" class="fil1 str0" d="M1380 370l72 0 0 57c0,5 -2,9 -5,13 -4,4 -9,6 -15,6l-52 0 0 138 -85 0 0 -138 -239 0c-7,0 -13,-2 -18,-6 -5,-4 -8,-9 -9,-15l-10 -50 269 -359 92 0 0 354zm-85 -186c0,-8 0,-17 1,-27 1,-9 1,-19 3,-30l-177 243 173 0 0 -186z"/>
 </g>
</svg>
